HIERARCHY
ROOT Hips
{
	OFFSET 0.00000 0.00000 0.00000
	CHANNELS 6 Xposition Yposition Zposition Zrotation Yrotation Xrotation 
	JOINT LHipJoint
	{
		OFFSET 0 0 0
		CHANNELS 3 Zrotation Yrotation Xrotation
		JOINT LeftHip
		{
			OFFSET 1.53139 -1.83434 0.76626
			CHANNELS 3 Zrotation Yrotation Xrotation
			JOINT LeftKnee
			{
				OFFSET 2.56112 -7.03663 0.00000
				CHANNELS 3 Zrotation Yrotation Xrotation
				JOINT LeftAnkle
				{
					OFFSET 2.59983 -7.14299 0.00000
					CHANNELS 3 Zrotation Yrotation Xrotation
					JOINT LeftToe
					{
						OFFSET 0.13742 -0.37757 2.00054
						CHANNELS 3 Zrotation Yrotation Xrotation
						End Site
						{
							OFFSET 0.00000 -0.00000 1.02897
						}
					}
				}
			}
		}
	}
	JOINT RHipJoint
	{
		OFFSET 0 0 0
		CHANNELS 3 Zrotation Yrotation Xrotation
		JOINT RightHip
		{
			OFFSET -1.40122 -1.83435 0.76627
			CHANNELS 3 Zrotation Yrotation Xrotation
			JOINT RightKnee
			{
				OFFSET -2.54052 -6.98003 0.00000
				CHANNELS 3 Zrotation Yrotation Xrotation
				JOINT RightAnkle
				{
					OFFSET -2.63179 -7.23079 0.00000
					CHANNELS 3 Zrotation Yrotation Xrotation
					JOINT RightToe
					{
						OFFSET -0.24131 -0.66299 2.03908
						CHANNELS 3 Zrotation Yrotation Xrotation
						End Site
						{
							OFFSET -0.00000 -0.00000 1.07391
						}
					}
				}
			}
		}
	}
	JOINT lowerback
	{
		OFFSET 0 0 0
		CHANNELS 3 Zrotation Yrotation Xrotation
		JOINT Chest
		{
			OFFSET 0.01174 2.10302 -0.29778
			CHANNELS 3 Zrotation Yrotation Xrotation
			JOINT Chest2
			{
				OFFSET 0.00772 2.13227 -0.01247
				CHANNELS 3 Zrotation Yrotation Xrotation
				JOINT lowerneck
				{
					OFFSET 0 0 0
					CHANNELS 3 Zrotation Yrotation Xrotation
					JOINT Neck
					{
						OFFSET -0.09219 1.60848 0.31481
						CHANNELS 3 Zrotation Yrotation Xrotation
						JOINT Head
						{
							OFFSET 0.13974 1.65456 -0.31134
							CHANNELS 3 Zrotation Yrotation Xrotation
							End Site
							{
								OFFSET 0.04742 1.69515 -0.14578
							}
						}
					}
				}
				JOINT LeftCollar
				{
					OFFSET 0 0 0
					CHANNELS 3 Zrotation Yrotation Xrotation
					JOINT LeftShoulder
					{
						OFFSET 3.24909 1.02882 -0.23993
CHANNELS 3 Zrotation Xrotation Yrotation
						JOINT LeftElbow
						{
OFFSET 0 -5.329550 -0.000000
CHANNELS 3 Zrotation Xrotation Yrotation
							JOINT LeftWrist
							{
OFFSET 0 -3.692320 -0.000000
CHANNELS 3 Zrotation Xrotation Yrotation
								JOINT lhand
								{
									OFFSET 0 0 0
CHANNELS 3 Zrotation Xrotation Yrotation
									JOINT LFingers
									{
OFFSET 0 -0.536600 -0.000000
CHANNELS 3 Zrotation Xrotation Yrotation
										End Site
										{
OFFSET 0 -0.432620 -0.000000
										}
									}
								}
								JOINT LThumb
								{
OFFSET 0 0.000000 0.000000
CHANNELS 3 Zrotation Xrotation Yrotation
									End Site
									{
OFFSET 0 -0.439220 0.439220
									}
								}
							}
						}
					}
				}
				JOINT RightCollar
				{
					OFFSET 0 0 0
					CHANNELS 3 Zrotation Yrotation Xrotation
					JOINT RightShoulder
					{
						OFFSET -3.21387 0.93002 -0.34594
CHANNELS 3 Zrotation Xrotation Yrotation
						JOINT RightElbow
						{
OFFSET 0 -5.234310 0.000000
CHANNELS 3 Zrotation Xrotation Yrotation
							JOINT RightWrist
							{
OFFSET 0 -3.553010 -0.000000
CHANNELS 3 Zrotation Xrotation Yrotation
								JOINT rhand
								{
									OFFSET 0 0 0
CHANNELS 3 Zrotation Xrotation Yrotation
									JOINT RFingers
									{
OFFSET 0 -0.772520 -0.000000
CHANNELS 3 Zrotation Xrotation Yrotation
										End Site
										{
OFFSET 0 -0.622830 -0.000000
										}
									}
								}
								JOINT RThumb
								{
OFFSET 0 0.000000 0.000000
CHANNELS 3 Zrotation Xrotation Yrotation
									End Site
									{
OFFSET 0 -0.632340 0.632340
									}
								}
							}
						}
					}
				}
			}
		}
	}
}
MOTION
Frames: 9
Frame Time: 0.008333333333333333
11.339833 18.035175 12.497640 14.086942 -71.751293 -8.556154 0.000000 0.000000 0.000000 -21.882157 13.324505 11.323293 0.000000 0.000000 0.000000 -1.616558 21.855233 -6.893371 1.008097 -6.388199 -17.915035 0.000000 0.000000 0.000000 15.870030 -2.094889 -32.023435 -2.342817 -9.546409 27.520005 0.216997 -9.003946 -7.206216 -0.893175 -6.023845 16.853711 -4.437965 -0.560891 11.268692 0.537041 -1.306198 0.409120 3.279292 -0.523929 -5.787569 -13.501348 -8.696990 -20.233133 11.433877 -12.247501 28.703737 4.565901 -5.407466 15.003621 0.000000 0.000000 0.000000 6.808739 5.795634 -17.347502 17.253421 -27.190624 4.202506 22.540136 14.051370 -26.157402 0.000000 0.000000 0.000000 -7.125000 0.000000 0.000000 -8.262759 57.791074 2.598804 0.000000 0.000000 0.000000 -1.625977 0.389756 15.791263 -20.517311 -31.260510 -5.797379 -15.739371 0.344196 -8.869397 0.000000 0.000000 0.000000 7.125000 0.000000 0.000000 8.026991 20.810140 4.697212
11.238583 18.031244 12.488542 14.352206 -72.191192 -8.839332 0.000000 0.000000 0.000000 -21.708712 13.311418 11.747937 0.000000 0.000000 0.000000 -1.640689 22.103856 -5.772766 1.262151 -7.121307 -20.075426 0.000000 0.000000 0.000000 15.995968 -1.835524 -31.694018 -2.375607 -9.608246 27.717125 0.186327 -8.693742 -7.631413 -0.903731 -6.058100 16.953119 -4.491655 -0.634557 11.344284 0.601919 -1.410935 0.427343 3.396261 -0.573325 -5.798623 -13.519678 -8.604180 -20.405621 11.324319 -12.036491 28.725328 4.565215 -5.326473 15.007157 0.000000 0.000000 0.000000 6.619956 5.814957 -17.344084 17.452733 -27.450778 4.294008 23.106266 13.301793 -26.227012 0.000000 0.000000 0.000000 -7.125000 0.000000 0.000000 -7.679100 57.989146 2.450359 0.000000 0.000000 0.000000 -1.558959 0.399679 15.450070 -20.277258 -30.974919 -5.673379 -15.570228 0.541443 -8.992141 0.000000 0.000000 0.000000 7.125000 0.000000 0.000000 8.145411 20.692821 4.789584
11.136374 18.023727 12.480449 14.663094 -72.676767 -9.211369 0.000000 0.000000 0.000000 -21.533015 13.362639 12.213132 0.000000 0.000000 0.000000 -1.671400 22.399624 -4.999675 1.339992 -7.329130 -20.694355 0.000000 0.000000 0.000000 16.121678 -1.592025 -31.320272 -2.400514 -9.654714 27.865781 0.162382 -8.456715 -7.948217 -0.871260 -5.951365 16.643508 -4.464526 -0.661106 11.463154 0.567228 -1.451019 0.449705 3.353407 -0.593756 -5.839538 -13.329650 -8.497902 -20.604689 11.221430 -11.890327 28.787637 4.518761 -5.249757 15.030315 0.000000 0.000000 0.000000 6.560773 5.779149 -17.166440 17.592642 -27.632440 4.358624 22.878854 12.479180 -25.967816 0.000000 0.000000 0.000000 -7.125000 0.000000 0.000000 -7.807756 57.671364 2.431917 0.000000 0.000000 0.000000 -1.346150 0.481080 15.019697 -20.090060 -30.750718 -5.577290 -15.505967 0.765578 -9.201002 0.000000 0.000000 0.000000 7.125000 0.000000 0.000000 8.186522 20.482168 4.853509
11.029406 18.027858 12.469580 15.030642 -73.168770 -9.608473 0.000000 0.000000 0.000000 -21.380499 13.398976 12.611487 0.000000 0.000000 0.000000 -1.729200 22.834366 -4.587304 1.254809 -7.101489 -20.016255 0.000000 0.000000 0.000000 16.273700 -1.442737 -30.942042 -2.403337 -9.660031 27.882719 0.137531 -8.175809 -8.187681 -0.880114 -5.980715 16.728614 -4.453175 -0.641463 11.527545 0.529935 -1.429143 0.468670 3.305534 -0.584010 -5.858855 -13.103057 -8.420526 -20.820636 11.047558 -11.771810 28.849076 4.429237 -5.188160 15.052615 0.000000 0.000000 0.000000 6.609350 5.648469 -17.308223 17.634655 -27.686881 4.378168 22.717204 11.570427 -25.670768 0.000000 0.000000 0.000000 -7.125000 0.000000 0.000000 -7.848255 57.329789 2.380001 0.000000 0.000000 0.000000 -1.045553 0.608551 14.486225 -19.964277 -30.599343 -5.513190 -15.453555 0.958210 -9.239754 0.000000 0.000000 0.000000 7.125000 0.000000 0.000000 8.223128 20.445152 4.882543
10.923073 18.038095 12.454095 15.294151 -73.566003 -9.779937 0.000000 0.000000 0.000000 -21.249207 13.285616 12.883578 0.000000 0.000000 0.000000 -1.789720 23.333105 -3.942450 1.235231 -7.047931 -19.857351 0.000000 0.000000 0.000000 16.464658 -1.331614 -30.663556 -2.393125 -9.640858 27.821396 0.112402 -7.850844 -8.342004 -0.905067 -6.062678 16.966323 -4.490301 -0.653635 11.510509 0.587016 -1.446019 0.437517 3.389561 -0.589238 -5.878542 -13.185787 -8.371578 -20.921715 11.032875 -11.631968 28.774635 4.462889 -5.134602 15.023257 0.000000 0.000000 0.000000 6.609864 5.545161 -17.768648 17.699859 -27.771206 4.408503 22.737869 10.592406 -25.681437 0.000000 0.000000 0.000000 -7.125000 0.000000 0.000000 -7.830759 57.345413 2.377536 0.000000 0.000000 0.000000 -0.972118 0.748706 14.238887 -19.831798 -30.439186 -5.445892 -15.588133 0.875630 -9.202629 0.000000 0.000000 0.000000 7.125000 0.000000 0.000000 8.127784 20.476103 4.819052
10.812986 18.053136 12.440435 14.728239 -74.014826 -9.198387 0.000000 0.000000 0.000000 -20.857088 13.202720 13.209987 0.000000 0.000000 0.000000 -1.846175 23.844189 -3.194585 1.245041 -7.074838 -19.937408 0.000000 0.000000 0.000000 16.972177 -1.275794 -30.322790 -2.379502 -9.615479 27.740387 0.090528 -7.525871 -8.406098 -0.872235 -5.954441 16.652306 -4.295963 -0.699904 11.520029 0.709097 -1.475001 0.402754 3.414052 -0.605097 -5.919388 -13.340685 -8.297912 -20.936868 11.131036 -11.479800 28.671913 4.560596 -5.073687 14.975437 0.000000 0.000000 0.000000 6.568121 5.424853 -17.978135 17.705984 -27.779032 4.411392 22.455109 9.752845 -25.595067 0.000000 0.000000 0.000000 -7.125000 0.000000 0.000000 -8.096760 57.194698 2.429346 0.000000 0.000000 0.000000 -1.051761 0.897940 14.291579 -19.637671 -30.203311 -5.347910 -15.636887 0.718221 -9.201196 0.000000 0.000000 0.000000 7.125000 0.000000 0.000000 8.092856 20.475006 4.798184
10.702125 18.067224 12.425620 14.092437 -74.452175 -8.546553 0.000000 0.000000 0.000000 -20.464137 13.100948 13.511816 0.000000 0.000000 0.000000 -1.885245 24.335620 -2.200245 1.253224 -7.096690 -20.002325 0.000000 0.000000 0.000000 17.521815 -1.323705 -30.002789 -2.357865 -9.574726 27.610223 0.068651 -7.195706 -8.474422 -0.814726 -5.759642 16.088658 -4.062666 -0.743605 11.563389 0.789247 -1.499408 0.352106 3.372735 -0.619210 -5.998538 -13.273845 -8.284715 -21.054256 11.055185 -11.444285 28.692432 4.522669 -5.056718 14.992977 0.000000 0.000000 0.000000 6.539035 5.244989 -17.999050 17.607163 -27.651136 4.365370 22.104426 9.156919 -25.079648 0.000000 0.000000 0.000000 -7.125000 0.000000 0.000000 -8.243538 56.589458 2.353221 0.000000 0.000000 0.000000 -1.062780 1.103009 14.366705 -19.485363 -30.017272 -5.271445 -15.696019 0.572310 -9.066256 0.000000 0.000000 0.000000 7.125000 0.000000 0.000000 8.053601 20.610411 4.749680
10.587851 18.079342 12.409487 13.870788 -74.955847 -8.334887 0.000000 0.000000 0.000000 -20.202539 13.097381 13.826140 0.000000 0.000000 0.000000 -1.903674 24.829718 -0.919407 1.349975 -7.355492 -20.772887 0.000000 0.000000 0.000000 17.968481 -1.382048 -29.592597 -2.325344 -9.513138 27.414132 0.045127 -6.860390 -8.600730 -0.758163 -5.560624 15.514886 -3.928456 -0.737779 11.602958 0.827176 -1.473584 0.312704 3.334557 -0.607277 -6.066956 -13.157432 -8.330851 -21.136516 10.874928 -11.481169 28.697593 4.415589 -5.078940 14.994891 0.000000 0.000000 0.000000 6.514349 5.112100 -18.160525 17.533953 -27.556320 4.331447 22.505393 9.058895 -24.970251 0.000000 0.000000 0.000000 -7.125000 0.000000 0.000000 -7.768932 56.562177 2.211341 0.000000 0.000000 0.000000 -1.014112 1.337223 14.343146 -19.340758 -29.839931 -5.199354 -15.929461 0.511601 -8.927178 0.000000 0.000000 0.000000 7.125000 0.000000 0.000000 7.889417 20.741193 4.627492
10.472251 18.093160 12.393536 13.368510 -75.412512 -7.830680 0.000000 0.000000 0.000000 -19.891423 12.994866 14.013381 0.001544 0.085460 0.234878 -1.929308 25.274299 -0.076577 1.358476 -7.376483 -20.836093 0.000000 0.000000 0.000000 18.482729 -1.470004 -29.154809 -2.286594 -9.439128 27.178938 0.024471 -6.596396 -8.768026 -0.713845 -5.398955 15.050199 -3.700362 -0.734119 11.593500 0.864903 -1.435565 0.277718 3.239641 -0.592930 -6.106198 -13.166209 -8.333638 -21.107763 10.874398 -11.470442 28.594478 4.416086 -5.075891 14.940732 0.000000 0.000000 0.000000 6.583700 4.983066 -18.572660 17.482625 -27.489597 4.307755 22.855739 8.679233 -24.953154 0.000000 0.000000 0.000000 -7.125000 0.000000 0.000000 -7.387417 56.619276 2.111958 0.000000 0.000000 0.000000 -0.900337 1.528198 14.126887 -19.142296 -29.595089 -5.101014 -15.870823 0.823137 -8.875949 0.000000 0.000000 0.000000 7.125000 0.000000 0.000000 7.932508 20.796765 4.643237
